<?xml version="1.0" encoding="utf-8"?>
<!-- Generator: Adobe Illustrator 27.0.0, SVG Export Plug-In . SVG Version: 6.00 Build 0)  -->
<svg version="1.1" id="Layer_1" xmlns="http://www.w3.org/2000/svg" xmlns:xlink="http://www.w3.org/1999/xlink" x="0px" y="0px"
	 viewBox="0 0 363.1 355.6" style="enable-background:new 0 0 363.1 355.6;" xml:space="preserve">
<style type="text/css">
	.st0{fill:#FFFFFF;}
	.st1{fill:url(#SVGID_1_);}
	.st2{fill:url(#SVGID_00000063619726582534289680000016954542083738196870_);}
	.st3{fill:url(#SVGID_00000121976797653552983480000008222513810194886791_);}
	.st4{fill:url(#SVGID_00000171001507206950443920000013489718245601789846_);}
	.st5{fill-opacity:0.4;}
	.st6{fill:#FFFFFF;fill-opacity:0.4;}
</style>
<g transform="matrix( 1, 0, 0, 1, 0,0) ">
	<g>
		<g id="Layer2_0_FILL">
			<path class="st0" d="M12,175.5c0,10.5,0.8,20.6,2.4,30.5C22,264,17.2,313.9,0,355.6c35.2-11.4,65.3-14.9,90.3-10.5
				c39.2,7.1,77.9,8.8,116,5.1c40.5-3.9,75.6-20.8,105.3-50.5c34.3-34.3,51.5-75.6,51.5-124.1S346,85.7,311.6,51.4
				C277.4,17.1,236,0,187.5,0C139.1,0,97.7,17.1,63.4,51.4C29.1,85.7,12,127.1,12,175.5z"/>
		</g>
	</g>
</g>
<g transform="matrix( 1, 0, 0, 1, 1462.6,831.3) ">
	<g transform="matrix( 1, 0, 0, 1, 0,0) ">
		<g>
			<g id="Symbol_1_0_Layer1_0_FILL">
				
					<linearGradient id="SVGID_1_" gradientUnits="userSpaceOnUse" x1="-2834.9695" y1="253.3158" x2="-2783.9514" y2="21.9605" gradientTransform="matrix(1 0 0 -1 1462.6 -460.3)">
					<stop  offset="0" style="stop-color:#E01A65"/>
					<stop  offset="0.3804" style="stop-color:#811837"/>
					<stop  offset="1" style="stop-color:#5B1127"/>
				</linearGradient>
				<path class="st1" d="M-1228.5-625.2l-28.9-43.8c-12.1-11.6-25.3-21.4-39.8-29.4c-31.2-18.6-60-22.3-86.2-10.9
					c-32.7,14.4-51.3,38.4-55.9,72.1c-1.1,5.8,0.1,32.7,3.5,80.6c-0.3,27.9-4.1,50.3-11.6,67.1l-2.9,3l-0.8,1.4l5-4.7
					c15.9-7.5,38.2-9.6,66.8-6.4c44.3,6.2,71.3,9,80.8,8.5c35-3.7,59.9-21.2,74.5-52.3C-1210.2-563.8-1211.6-592.1-1228.5-625.2z"/>
			</g>
		</g>
	</g>
	<g transform="matrix( 5.03271484375, 22.809539794921875, -22.809539794921875, 5.03271484375, -194.5,-599) ">
		<g>
			<g id="Symbol_1_0_Layer1_1_FILL">
				
					<linearGradient id="SVGID_00000151538474599241358610000016787694536070718373_" gradientUnits="userSpaceOnUse" x1="1.2749" y1="90.342" x2="4.4499" y2="85.242" gradientTransform="matrix(5.0327 -22.8095 -22.8095 -5.0327 2037.9247 523.0384)">
					<stop  offset="0" style="stop-color:#82DD38"/>
					<stop  offset="1" style="stop-color:#4C7C20"/>
				</linearGradient>
				<path style="fill:url(#SVGID_00000151538474599241358610000016787694536070718373_);" d="M-16.6,38.8c-0.7,0.4-0.9,1-0.7,1.8
					c0.1,0.8,0.7,1.5,1.6,2l2.9,2.2l0.2,0.2l-0.1-0.1l0.1,0.1l-0.2-0.2c-0.5-1.6-0.8-2.8-0.8-3.6c-0.3-1.1-0.7-1.8-1.3-2.3
					C-15.4,38.4-16,38.4-16.6,38.8z"/>
			</g>
		</g>
	</g>
	<g transform="matrix( 5.03271484375, 22.809539794921875, -22.809539794921875, 5.03271484375, -194.5,-599) ">
		<g>
			<g id="Symbol_1_0_Layer1_2_FILL">
				
					<linearGradient id="SVGID_00000153692392699796169460000012177908773570419076_" gradientUnits="userSpaceOnUse" x1="1.1204" y1="90.4216" x2="10.5045" y2="90.4216" gradientTransform="matrix(5.0327 -22.8095 -22.8095 -5.0327 2037.9247 523.0384)">
					<stop  offset="0" style="stop-color:#82DD38"/>
					<stop  offset="1" style="stop-color:#5B9426"/>
				</linearGradient>
				<path style="fill:url(#SVGID_00000153692392699796169460000012177908773570419076_);" d="M-10.5,41.4c0.6-0.3,0.9-0.8,0.9-1.4
					c0.1-0.5-0.2-0.9-0.9-1.1c-0.7-0.2-1.4,0-2.1,0.5c-1.1,0.8-1.1,2.5-0.1,5.2l0.1,0.2l-0.1-0.2c-0.8-0.7-1.5-1.2-2.1-1.6
					c-1.1-0.7-2-0.8-2.8-0.4c-0.7,0.4-1.1,1-1.2,1.7s0.1,1.2,0.6,1.3c0.6,0.2,1.1,0,1.6-0.4l1.3-1c0.7-0.3,1.4-0.2,2.2,0.4
					c0.4,0.2,0.6,0.3,0.6,0.2c0.1,0,0.1-0.2,0.1-0.7c-0.2-0.9-0.1-1.7,0.4-2.2L-10.5,41.4z"/>
			</g>
		</g>
	</g>
	<g transform="matrix( 5.03271484375, 22.809539794921875, -22.809539794921875, 5.03271484375, -194.5,-599) ">
		<g>
			<g id="Symbol_1_0_Layer1_3_FILL">
				
					<linearGradient id="SVGID_00000091721163424596899200000002832521985855244207_" gradientUnits="userSpaceOnUse" x1="0.8207" y1="90.0185" x2="6.0207" y2="90.0185" gradientTransform="matrix(5.0327 -22.8095 -22.8095 -5.0327 2037.9247 523.0384)">
					<stop  offset="0" style="stop-color:#FFFFFF;stop-opacity:0.298"/>
					<stop  offset="0.4784" style="stop-color:#FBE7E7;stop-opacity:0.298"/>
					<stop  offset="1" style="stop-color:#F7CAC8;stop-opacity:0.298"/>
				</linearGradient>
				<path style="fill:url(#SVGID_00000091721163424596899200000002832521985855244207_);" d="M-9.2,49.8l-0.2,0.5l-0.1,0.9
					c-0.1,0.2-0.4,0.3-0.8,0.3c-0.6,0-0.9,0.2-0.9,0.6l1.5,0.2c1.2,0.1,2.1,0.5,2.7,1l0.1,0.2l-0.1-0.1l0.1,0.1L-7,53.4
					c-0.1-0.7,0-1.7,0.4-2.9L-6,49c-0.3-0.2-0.6,0-0.9,0.5c-0.2,0.4-0.4,0.6-0.6,0.5l-0.9-0.2c-0.3-0.1-0.4-0.1-0.6,0h-0.1
					L-9.2,49.8z"/>
			</g>
		</g>
	</g>
	<g transform="matrix( 1, 0, 0, 1, 0,0) ">
		<g>
			<g id="Symbol_1_0_Layer0_0_FILL">
				<path class="st5" d="M-1422.5-496.2c13.8-2.3,28.2-2.2,43.1,0.1l79.6,8.7c33.7-2.6,58.8-18.9,75.3-48.9
					c-17.9,23.9-50.4,35.5-97.6,34.7C-1375.4-501-1408.9-499.2-1422.5-496.2 M-1270.2-662.5c19.9-10.8,37-10.9,51.3-0.5l26,31.3
					c9.9,12.1,21.8,17.1,35.6,14.8c10.7-2.3,17.1-9.3,19.4-21c-6.5,6.9-14.5,10.3-24.1,10c-10.4-0.1-19-4.5-25.8-13.4
					c-13.8-16-26.4-26-37.7-29.9c-17.4-6.6-37.7-2.9-61,11C-1286-657.9-1280.6-658.7-1270.2-662.5z"/>
				<path class="st6" d="M-1307.4-662.8c15.5-5.8,17.2-14.6,5-26.2c-17-12.3-35-16.3-54-12.1c-19,4.2-36.1,17.5-51.1,40l0.3,1.1
					c7.2-7.1,20-12.3,38.4-15.6c14.8-1.6,27.2,0.8,37.4,7.3C-1322-662.3-1314-660.5-1307.4-662.8z"/>
			</g>
		</g>
	</g>
</g>
</svg>
